<svg xmlns="http://www.w3.org/2000/svg" width="307.25" height="287" viewBox="0 0 307.25 287"><defs><style>.cls-1 { fill: #65b936; fill-rule: evenodd; }</style></defs><path class="cls-1" d="M240.695 32.767h30.267v65.677l-30.137-26.965zm33.123 111.533l-117.669-111.261-125.506 111.961c-21 18.722-30.635 0-30.635 0l156.141-145.014 151.092 144.314s-9.116 18.494-33.423 0zm-11.782 10.022v123.368s.389 9.014-8.129 9.014h-75.805l.133-66.704s.744-11.03-11.259-11.03h-32.133c-10.162 0-9.062 11.03-9.062 11.03l-.122 66.918s-69.088.09-77.44.09c-6.706 0-6.438-7.234-6.438-7.234v-125.448l113.425-100.21z"/></svg>