<svg xmlns="http://www.w3.org/2000/svg" width="293.938" height="307" viewBox="0 0 293.938 307"><defs><style>.cls-1 { fill: #d92b2c; fill-rule: evenodd; }</style></defs><path id="Forma_1" class="cls-1" d="M469.651 2230.09a26.739 26.739 0 0 0-6 .63v39.53a23.539 23.539 0 0 0 4.594.35c12.138.33 20.2-6.47 20.2-21.21.089-12.82-7.245-19.48-18.794-19.3zm101.955 151.4c.4.02.8.06 1.218.06h92.51a19.69 19.69 0 0 0 19.623-19.71v-215.47a19.7 19.7 0 0 0-19.623-19.71h-92.51c-.411 0-.816.04-1.218.06v-25.72l-180.564 24.21v257.95l180.564 24.84v-26.51zm93.728-11.2h-92.51a8.191 8.191 0 0 1-1.218-.13v-84.53c19.275-3.35 46.043-5.88 69.2-.42l2.737 5.34c11.055 21 22.859 20.86 27.42 19.82a8.129 8.129 0 0 0 1.61-.5l.613-.33c.2-.13.367-.29.559-.44v52.74a8.441 8.441 0 0 1-8.411 8.45zm-85.883-94.68c14.488-17.75 26.2-34.33 33.734-45.55l.027.06.082-.12c5.917 12.53 15.676 31.92 22.391 45.16l-.021-.01.229.45c-19.1-3.28-39.613-2.09-56.485.26l.246-.29zm34.079-82.83c.58-1.03 1.428-1.31 2.95-1.24.031 0 3.053.2 4.178 2.28.685 1.24 1.679 5.17-3.66 14.75s-.69 1.16-1.988 3.24c-2.992-10.55-2.797-16.71-1.48-19.03zm38.578 95.89a66.327 66.327 0 0 1 14.712 7.81c1.235 1.77 2.385 4.31 2.174 5.51a.488.488 0 0 1-.057.17c-1.766.33-8.802.55-16.829-13.49zm-79.284-150.74h92.51a8.441 8.441 0 0 1 8.41 8.45v145.31c-.265-.37-.493-.68-.628-.85l-.355-.46-.466-.35a78.785 78.785 0 0 0-25.741-12.06c-7.063-13.87-21.7-42.76-27.847-56.29 3.559-5.51 5.475-8.72 5.562-8.87 5.547-9.94 6.762-17.7 3.7-23.17-2.782-4.96-8.325-6.44-11.156-6.54a11.11 11.11 0 0 0-10.6 5.5c-3.231 5.72-2.563 15.74 2 29.76.2.65.525 1.48.958 2.53a614.485 614.485 0 0 1-37.571 50.99v-133.83a8.226 8.226 0 0 1 1.224-.12zm-135.533 114.83c-4.269 4.25-10.544 6.11-17.789 6.04a28.046 28.046 0 0 1-4.146-.3v20.71l-11.858-.33v-56.53a91.132 91.132 0 0 1 16.245-1.58c7.56-.19 13.035 1.25 16.727 4.31a17.4 17.4 0 0 1 5.963 13.61c0 5.81-1.828 10.74-5.142 14.07zm55.672 21.25c-6.405 5.25-16.032 7.54-27.585 7.22a110.923 110.923 0 0 1-14.8-1.3v-58.67a112.748 112.748 0 0 1 17.669-1.67c11.253-.28 18.665 1.64 24.54 6.01 6.379 4.69 10.426 12.31 10.426 23.34.002 11.96-4.313 20.13-10.25 25.07zm19.571-55.03l39.891-.96v12.05l-25.373.37v14.55l23.684-.06v11.93l-23.684-.16v25.61l-14.522-.4v-62.93zm-92.149 11.69a18.991 18.991 0 0 0-5.026.6v17.09a17.015 17.015 0 0 0 4.067.35c6.516.01 10.571-3.56 10.571-9.57.003-5.4-3.492-8.56-9.612-8.47z" transform="translate(-391.031 -2101)"/></svg>