<svg xmlns="http://www.w3.org/2000/svg" width="132" height="178.063" viewBox="0 0 132 178.063"><defs><style>.cls-1 { fill: #65b936; fill-rule: evenodd; }</style></defs><path class="cls-1" d="M817 14.993c-36.393 0-66 29.408-66 65.555a63.579 63.579 0 0 0 5.773 26.761c16.5 35.861 48.14 73.726 57.447 84.479a3.689 3.689 0 0 0 5.567 0c9.3-10.752 40.942-48.613 57.449-84.479a63.593 63.593 0 0 0 5.771-26.761c-.007-36.148-29.613-65.555-66.007-65.555zm0 99.605a34.054 34.054 0 1 1 34.286-34.05 34.209 34.209 0 0 1-34.286 34.052z" transform="translate(-751 -15)"/></svg>