<svg xmlns="http://www.w3.org/2000/svg" width="51" height="46" viewBox="0 0 51 46">
  <defs>
    <style>
      .cls-1 {
        fill-rule: evenodd;
      }
    </style>
  </defs>
  <path class="cls-1" d="M557.455,1912.17l-24.174-17.91a1.3,1.3,0,0,0-1.565,0l-24.175,17.91a1.346,1.346,0,0,0-.286,1.87,1.311,1.311,0,0,0,1.852.29L532.5,1897l23.392,17.33a1.274,1.274,0,0,0,.781.26,1.315,1.315,0,0,0,1.07-.55A1.344,1.344,0,0,0,557.455,1912.17Zm-6.405,2.46a1.341,1.341,0,0,0-1.325,1.35v21.34h-10.6v-11.65a6.626,6.626,0,1,0-13.251,0v11.65h-10.6v-21.34a1.325,1.325,0,1,0-2.65,0v22.68a1.333,1.333,0,0,0,1.325,1.34H527.2a1.328,1.328,0,0,0,1.32-1.24,0.951,0.951,0,0,0,0-.1v-12.99a3.976,3.976,0,1,1,7.951,0v12.99a0.951,0.951,0,0,0,0,.1,1.335,1.335,0,0,0,1.32,1.24H551.05a1.332,1.332,0,0,0,1.325-1.34v-22.68A1.342,1.342,0,0,0,551.05,1914.63Z" transform="translate(-507 -1894)"/>
</svg>
