<svg xmlns="http://www.w3.org/2000/svg" width="68.03" height="41" viewBox="0 0 68.03 41">
  <defs>
    <style>
      .cls-1 {
        fill: #373e43;
        fill-rule: evenodd;
      }
    </style>
  </defs>
  <path class="cls-1" d="M1030.84,406.074a7.2,7.2,0,0,0,.89-1.12l26.36-26.525a6.662,6.662,0,0,0,0-9.374,6.563,6.563,0,0,0-9.32,0l-22.7,22.845-22.83-22.961a6.556,6.556,0,0,0-9.316,0,6.655,6.655,0,0,0,0,9.371l26.484,26.644a6.631,6.631,0,0,0,.88,1.12A6.867,6.867,0,0,0,1030.84,406.074Z" transform="translate(-992 -367)"/>
</svg>
