<svg xmlns="http://www.w3.org/2000/svg" width="49" height="46" viewBox="0 0 49 46">
  <defs>
    <style>
      .cls-1 {
        fill-rule: evenodd;
      }
    </style>
  </defs>
  <path class="cls-1" d="M1134,1894h-41a4,4,0,0,0-4,3.99v27.75a4.012,4.012,0,0,0,4,4h13.75v5.35h-2.17a2.455,2.455,0,1,0,0,4.91h17.85a2.455,2.455,0,1,0,0-4.91h-2.17v-5.35H1134a4.012,4.012,0,0,0,4-4v-27.75A4,4,0,0,0,1134,1894Zm-5.85,33.28a1.11,1.11,0,1,1,1.11-1.11A1.116,1.116,0,0,1,1128.15,1927.28Zm4.92,0.27a1.38,1.38,0,1,1,1.38-1.38A1.383,1.383,0,0,1,1133.07,1927.55Zm1.65-4.15h-42.44v-25.41a0.73,0.73,0,0,1,.72-0.72h41a0.73,0.73,0,0,1,.72.72v25.41h0Zm-19.39-12.67,1.8-1.09a0.463,0.463,0,0,0-.08-0.83l-8.29-2.88a0.5,0.5,0,0,0-.48.11,0.473,0.473,0,0,0-.11.48l2.89,8.27a0.459,0.459,0,0,0,.38.3,0.453,0.453,0,0,0,.45-0.22l1.09-1.8,3.39,3.39a0.487,0.487,0,0,0,.33.13,0.463,0.463,0,0,0,.32-0.13l1.7-1.7a0.459,0.459,0,0,0,0-.65Z" transform="translate(-1089 -1894)"/>
</svg>
