<svg xmlns="http://www.w3.org/2000/svg" viewBox="0 0 47 59">
  <defs>
    <style>
      .cls-1 {
        fill: #57a22d;
        fill-rule: evenodd;
      }
    </style>
  </defs>
  <path class="cls-1" d="M1321.88,1276.17v-0.02l-2.85-10.8a3.861,3.861,0,0,0-3.76-2.95h-1.72a3.774,3.774,0,0,0,.59-1.82,3.856,3.856,0,0,1,.98-5.92,3.846,3.846,0,0,1,.98-5.91,3.861,3.861,0,0,0-.94-2.76,3.576,3.576,0,0,0,.87-0.69,3.865,3.865,0,0,0,1.06-2.87,3.781,3.781,0,0,0-.71-2.01,3.882,3.882,0,0,0,2.65-2.72l2.85-10.85v-0.02a4.087,4.087,0,0,0-.73-3.47,3.439,3.439,0,0,0-2.71-1.36h-4.48c-4.1,0-7.72,5.19-9.76,13.8h-6.75a5.8,5.8,0,0,0-3.78,1.39,20.316,20.316,0,0,1-7.43,4.34,2.051,2.051,0,0,0-1.63-.81h-7.57a2.051,2.051,0,0,0-2.04,2.05v19.43a2.051,2.051,0,0,0,2.04,2.05h7.57a2.054,2.054,0,0,0,1.75-.99h3.07a25.811,25.811,0,0,1,4.21.35l1.56,0.26a27.364,27.364,0,0,0,4.51.38h3.87a37.785,37.785,0,0,0,3.84,11.68c1.88,3.32,4.14,5.07,6.54,5.07h4.48a3.439,3.439,0,0,0,2.71-1.36A4.087,4.087,0,0,0,1321.88,1276.17Zm-37.06-13.97a0.2,0.2,0,0,1-.21.2h-7.57a0.2,0.2,0,0,1-.2-0.2v-19.43a0.2,0.2,0,0,1,.2-0.2h7.57a0.2,0.2,0,0,1,.21.2v19.43Zm33.62-38.35a1.6,1.6,0,0,1,1.26.65,2.219,2.219,0,0,1,.39,1.89l-2.85,10.85v0.02a2.078,2.078,0,0,1-2.05,1.49h-1.2l3.9-14.9h0.55Zm-4.48,0h2.03l-3.9,14.9h-6.64C1307.13,1229.79,1310.5,1223.85,1313.96,1223.85Zm-14.25,38.55a25.689,25.689,0,0,1-4.2-.35l-1.57-.26a27.174,27.174,0,0,0-4.51-.37h-2.77v-18.08a22.034,22.034,0,0,0,8.21-4.75,3.968,3.968,0,0,1,2.58-.95h6.34c-0.12.61-.24,1.24-0.35,1.88a0.929,0.929,0,0,0,.21.75,0.9,0.9,0,0,0,.7.33h8.71a2.148,2.148,0,0,1,2.19,1.92,2.008,2.008,0,0,1-.56,1.51,1.972,1.972,0,0,1-1.47.63h-0.98a0.925,0.925,0,0,0,0,1.85,2.035,2.035,0,0,1,2.02,2.15,2.132,2.132,0,0,1-2.18,1.92h-0.82a0.92,0.92,0,0,0,0,1.84,2.035,2.035,0,0,1,2.02,2.15,2.134,2.134,0,0,1-2.19,1.92h-0.81a0.925,0.925,0,0,0,0,1.85,2,2,0,0,1,1.47.63,2.039,2.039,0,0,1,.55,1.51,2.137,2.137,0,0,1-2.17,1.92h-10.42Zm14.25,16.75c-3.45,0-6.83-5.95-8.51-14.9h6.66l3.88,14.9h-2.03Zm5.74-.65a1.6,1.6,0,0,1-1.26.65h-0.55l-3.87-14.9h1.25a2.023,2.023,0,0,1,1.97,1.55v0.02l2.85,10.79A2.219,2.219,0,0,1,1319.7,1278.5Zm-38.87-23a2.9,2.9,0,1,0,2.88,2.9A2.891,2.891,0,0,0,1280.83,1255.5Zm0,3.94a1.045,1.045,0,0,1,0-2.09A1.045,1.045,0,0,1,1280.83,1259.44Z" transform="translate(-1275 -1222)"/>
</svg>
