<svg xmlns="http://www.w3.org/2000/svg" viewBox="0 0 197 197">
  <defs>
    <style>
      .cls-1 {
        fill: #717171;
        fill-rule: evenodd;
      }
    </style>
  </defs>
  <path class="cls-1" d="M490.5,830A98.5,98.5,0,1,0,589,928.5,98.5,98.5,0,0,0,490.5,830Zm6.8,110.541a6.6,6.6,0,0,1-.081.778c-0.026.194-.037,0.394-0.082,0.584s-0.119.4-.183,0.595a7.114,7.114,0,0,1-.249.707c-0.019.039-.025,0.081-0.043,0.12a6.55,6.55,0,0,1-.509.894c-0.012.017-.027,0.035-0.039,0.052a6.733,6.733,0,0,1-.717.869c-0.071.074-.144,0.14-0.22,0.21a6.487,6.487,0,0,1-.719.595c-0.077.056-.152,0.116-0.235,0.17a6.706,6.706,0,0,1-1.02.553c-0.077.035-.157,0.055-0.235,0.086a6.935,6.935,0,0,1-.916.284c-0.113.026-.223,0.051-0.337,0.072a6.843,6.843,0,0,1-1.222.124c-0.083,0-.169-0.026-0.253-0.03a6.876,6.876,0,0,1-1.163-.125c-0.117-.026-0.233-0.078-0.35-0.109a7.015,7.015,0,0,1-1.021-.348c-0.036-.018-0.076-0.022-0.114-0.04l-37.769-17.814a6.813,6.813,0,0,1,5.811-12.324l28.051,13.229v-58.8a6.812,6.812,0,0,1,13.624,0v69.542h0C497.313,940.46,497.3,940.5,497.3,940.54Z" transform="translate(-392 -830)"/>
</svg>
