<svg xmlns="http://www.w3.org/2000/svg" viewBox="0 0 62 60">
  <defs>
    <style>
      .cls-1 {
        fill: #65b936;
        fill-rule: evenodd;
      }
    </style>
  </defs>
  <path id="Forma_1" data-name="Forma 1" class="cls-1" d="M644,1272.52c0-.02,0-0.05,0-0.08a6.689,6.689,0,0,0-2.734-4.97,11.546,11.546,0,0,0-4.96-1.85c-5.055-.86-6.749-1.34-7.551-1.66l-4.07-10.62,5.414-7.59a0.811,0.811,0,0,0-.322-1.21l-0.976-.46,9.008-9.99a0.816,0.816,0,1,0-1.214-1.09l-9.349,10.37-0.854-.4a7.7,7.7,0,0,0-9.719,2.89l-1.98,3.15-0.789-.08a12.74,12.74,0,0,1-8.723-4.65,11.979,11.979,0,0,1-2.657-6.58,25.19,25.19,0,0,0,7.838-5.15,59.208,59.208,0,0,0,7.479-9.29,0.817,0.817,0,1,0-1.376-.88,59.276,59.276,0,0,1-7.239,8.99,24.015,24.015,0,0,1-6.713,4.55c0.011-.16.024-0.33,0.042-0.49a1.852,1.852,0,0,0-1.051-1.89,1.933,1.933,0,0,0-2.173.3l-12.473,9.45a6.452,6.452,0,0,0-1.266,1.27,7.25,7.25,0,0,0-3.462,4.89,5.685,5.685,0,0,0,.939,4.63l3.567,4.37a5.668,5.668,0,0,0,3.625,2.04,2.778,2.778,0,0,1,2.444,2.94,5.535,5.535,0,0,0,2.1,4.84l12.7,9.95a16.41,16.41,0,0,0,9.463,3.78h0.059l15.631-.14c5.1,0,8.469-1,10.019-2.99a4.481,4.481,0,0,0,.785-3.86A5.955,5.955,0,0,0,644,1272.52Zm-1.636.04a4.614,4.614,0,0,1-4.7,4.48H625.429a5.993,5.993,0,0,1,4.334-1.94l2.772-.04a3.605,3.605,0,0,0,3.542-3.81,1.969,1.969,0,0,1,1.121-1.89l2.265-1.07A5.073,5.073,0,0,1,642.364,1272.56Zm-5.063-5.06-0.8.38a3.6,3.6,0,0,0-2.054,3.47,1.953,1.953,0,0,1-.524,1.45,1.931,1.931,0,0,1-1.409.62l-2.772.04a7.672,7.672,0,0,0-6.365,3.58h-0.858a21.043,21.043,0,0,1-9.187-2.12c2.291-3.79,2.973-8.76,1.969-14.44a36.406,36.406,0,0,0-1.872-6.69q1.1,0.12,2.279.15c0.3,0.01.606,0.01,0.9,0.01a35.115,35.115,0,0,0,6.333-.58l0.3,0.78h-2.8a0.815,0.815,0,1,0,0,1.63h3.428l0.506,1.32h-2.152a0.82,0.82,0,0,0,0,1.64H625l0.506,1.32h-2.331a0.82,0.82,0,0,0,0,1.64h2.959l0.5,1.31H624.4a0.82,0.82,0,0,0,0,1.64h2.63l-0.042.08a3.37,3.37,0,0,0,2.919,5,3.684,3.684,0,0,0,.656-0.07,11.367,11.367,0,0,0,5.239-2.46,1.835,1.835,0,0,1,.225.04C636.478,1267.31,636.9,1267.4,637.3,1267.5Zm-25.753-13.99c0.909,2.14,5.076,12.93.336,20.64a20.181,20.181,0,0,1-3.867-2.93l-10.59-10.28a10.361,10.361,0,0,0,3.626-7.79c-0.016-3.05-1.371-6.3-4.028-9.67a31.146,31.146,0,0,0-3.177-3.44l4.24-3.21c-0.332,2.6.03,7.04,4.428,11.99A15.594,15.594,0,0,0,611.548,1253.51Zm16.844,12.06a34.667,34.667,0,0,0,5.169,1.23,9.832,9.832,0,0,1-3.31,1.25,1.666,1.666,0,0,1-1.724-.68A1.685,1.685,0,0,1,628.392,1265.57Zm-10.339-18.84a6.051,6.051,0,0,1,7.65-2.27l2.488,1.15-4.3,6.03a4.816,4.816,0,0,0-3.526-2.07l-3.855-.38ZM600.78,1235a0.22,0.22,0,0,1,.146.25,13.541,13.541,0,0,0,2.98,10.06,14.364,14.364,0,0,0,9.833,5.25l6.464,0.64a3.229,3.229,0,0,1,1.7.69c-3.529.56-13.176,1.47-18.165-4.15a14.806,14.806,0,0,1-4.083-8.91,9.361,9.361,0,0,1,.413-3.38,0.679,0.679,0,0,1,.317-0.4A0.517,0.517,0,0,1,600.78,1235Zm-12.939,9.59,4.679-3.54c1.633,1.48,6.872,6.66,6.9,12.11a8.863,8.863,0,0,1-3.168,6.64l-8.873-8.61a4.336,4.336,0,0,1-1.339-2.96A4.408,4.408,0,0,1,587.841,1244.59Zm44.8,35.63-15.607.14a14.7,14.7,0,0,1-8.5-3.4c-0.008-.01-0.016-0.01-0.023-0.02l-12.709-9.96a3.9,3.9,0,0,1-1.48-3.41,4.406,4.406,0,0,0-3.85-4.7,4.056,4.056,0,0,1-2.582-1.45l-3.568-4.37a4.142,4.142,0,0,1-.6-3.29,5.663,5.663,0,0,1,.67-1.78c0,0.11,0,.21,0,0.32a5.975,5.975,0,0,0,1.836,4.07l20.638,20.03a22.314,22.314,0,0,0,15.638,6.28h15.15a6.416,6.416,0,0,0,4.091-1.46,2.743,2.743,0,0,1-.374.64C640.194,1279.39,637.094,1280.22,632.645,1280.22Z" transform="translate(-582 -1222)"/>
</svg>
