<svg xmlns="http://www.w3.org/2000/svg"  viewBox="0 0 45 48.97">
  <defs>
    <style>
      .cls-1 {
        fill: #57a22d;
        fill-rule: evenodd;
      }
    </style>
  </defs>
  <path class="cls-1" d="M979.635,1253.6l-1.437-3.34c-0.085-.2-0.18-0.39-0.281-0.58a5,5,0,0,0-2.77-2.38,4.9,4.9,0,0,0-3.611.16l-0.554.24-0.708-1.64h0l-0.521-1.21a4.141,4.141,0,0,0-2.3-2.24,4.016,4.016,0,0,0-3.153.08l-1.837.82a3.471,3.471,0,0,0-1.235-1.13,3.986,3.986,0,0,0-3.595.13l-1.315.59-1.7-3.95a4.955,4.955,0,0,0-3.528-3.03,4.4,4.4,0,0,0-3.967,1.12,5.137,5.137,0,0,0-1.13,5.75l6.448,15.08a7.8,7.8,0,0,0-1.686-.15,5.818,5.818,0,0,0-3.751,1.35,0.749,0.749,0,0,0-.166.14,4.444,4.444,0,0,0-1.294,3.34,6.347,6.347,0,0,0,2.485,4.38c0.008,0.01.016,0.01,0.024,0.02l13.255,10.65a0.93,0.93,0,0,0,.591.21,0.871,0.871,0,0,0,.385-0.08l18.988-8.53a0.956,0.956,0,0,0,.569-0.83l0.1-1.69A29.238,29.238,0,0,0,979.635,1253.6Zm0.4,13.16-0.067,1.1-17.93,8.05-12.792-10.29a4.508,4.508,0,0,1-1.795-2.97,2.453,2.453,0,0,1,.624-1.74,0.522,0.522,0,0,0,.092-0.08c1.144-1.2,4-1.29,5.487-.17l3.293,3.23a0.944,0.944,0,0,0,1.351-.03,0.99,0.99,0,0,0-.027-1.38l-3.2-3.14-7.326-17.13a3.135,3.135,0,0,1,.7-3.55,2.54,2.54,0,0,1,2.273-.63,3.039,3.039,0,0,1,2.153,1.9l5.549,12.9a0.961,0.961,0,0,0,.875.58,0.876,0.876,0,0,0,.385-0.08,0.988,0.988,0,0,0,.49-1.29l-3.078-7.15,1.315-.59a2.287,2.287,0,0,1,1.948-.19,2.057,2.057,0,0,1,.828,1.03l3.273,7.61a0.96,0.96,0,0,0,.875.58,0.872,0.872,0,0,0,.384-0.08,0.987,0.987,0,0,0,.491-1.29l-2.886-6.7,1.751-.78h0.011a2.114,2.114,0,0,1,1.69-.05,2.242,2.242,0,0,1,1.231,1.2l3.889,9.04a0.961,0.961,0,0,0,.875.58,0.879,0.879,0,0,0,.385-0.08,0.988,0.988,0,0,0,.49-1.29l-1.891-4.39,0.547-.24a3.04,3.04,0,0,1,3.942,1.36c0.075,0.14.145,0.29,0.208,0.44l1.437,3.33A27.293,27.293,0,0,1,980.039,1266.76Zm-3.756-.26-0.942.42a0.991,0.991,0,0,0-.492,1.29,0.945,0.945,0,0,0,.876.58,0.868,0.868,0,0,0,.383-0.08l0.943-.42a0.988,0.988,0,0,0,.492-1.29A0.948,0.948,0,0,0,976.283,1266.5Zm-3.8,1.73-10.069,4.51a0.977,0.977,0,0,0-.491,1.28,0.955,0.955,0,0,0,.876.59,1.039,1.039,0,0,0,.383-0.08l10.069-4.52a0.976,0.976,0,0,0,.491-1.28A0.939,0.939,0,0,0,972.48,1268.23Zm-24.826-34.81a0.963,0.963,0,0,0,.935.78,1.29,1.29,0,0,0,.194-0.02,0.982,0.982,0,0,0,.743-1.16l-0.655-3.24a0.955,0.955,0,0,0-1.129-.75,0.968,0.968,0,0,0-.743,1.15Zm-8.218.17a1,1,0,0,0-.309-1.35l-0.66-.42a0.947,0.947,0,0,0-1.316.32,0.983,0.983,0,0,0,.309,1.34l0.661,0.42a0.93,0.93,0,0,0,.5.15A0.966,0.966,0,0,0,939.436,1233.59Zm1.856,2.47,2.039,1.37a0.926,0.926,0,0,0,.524.16,0.964,0.964,0,0,0,.8-0.44,0.985,0.985,0,0,0-.273-1.35l-2.039-1.37a0.941,0.941,0,0,0-1.324.28A0.987,0.987,0,0,0,941.292,1236.06Zm2.5,6.17a0.97,0.97,0,0,0-1.129-.76l-3.171.67a0.981,0.981,0,0,0-.742,1.16,0.963,0.963,0,0,0,.935.78,1.29,1.29,0,0,0,.194-0.02l3.17-.67A0.981,0.981,0,0,0,943.793,1242.23Zm2.4,5.03a0.94,0.94,0,0,0-1.323.28l-1.779,2.76a0.985,0.985,0,0,0,.273,1.35,0.926,0.926,0,0,0,.524.16,0.94,0.94,0,0,0,.8-0.44l1.779-2.76A0.988,0.988,0,0,0,946.2,1247.26Zm10.474-7.99a0.953,0.953,0,0,0,.935.78,0.644,0.644,0,0,0,.194-0.02l2.114-.44a0.981,0.981,0,0,0,.742-1.16,0.962,0.962,0,0,0-1.129-.76l-2.114.45A0.976,0.976,0,0,0,956.671,1239.27Zm6.88-.47a1.29,1.29,0,0,0,.194-0.02l0.661-.14a0.976,0.976,0,0,0,.742-1.15,0.954,0.954,0,0,0-1.129-.76l-0.661.14A0.977,0.977,0,0,0,963.551,1238.8Zm-9.79-3.74a0.924,0.924,0,0,0,.524.16,0.961,0.961,0,0,0,.8-0.44l1.779-2.77a0.987,0.987,0,0,0-.273-1.35,0.95,0.95,0,0,0-1.324.28l-1.779,2.76A1,1,0,0,0,953.761,1235.06Z" transform="translate(-937 -1229.03)"/>
</svg>
