<svg xmlns="http://www.w3.org/2000/svg" width="82" height="100" viewBox="0 0 82 100">
  <defs>
    <style>
      .cls-1 {
		fill: #65b936;
        fill-rule: evenodd;
      }
    </style>
  </defs>
  <path id="Shape_655_copy" data-name="Shape 655 copy" class="cls-1" d="M1350.22,4698.01a2.373,2.373,0,0,1-2.87,1.83,2.477,2.477,0,0,1-1.77-2.97c1.33-5.75.64-10.79-1.86-13.49-1.66-1.8-4.02-2.42-7.03-1.84-5.96,1.17-9.76,6.49-14.16,12.66-3.69,5.16-7.87,11.02-14,14.94a36.378,36.378,0,0,1-19.35,5.86q-0.93,0-1.86-.06c-7.16-.43-13.07-3.38-16.2-8.1-3.96-5.96-1.69-12.16,1.39-16.4l-2.41-3.33a5.9,5.9,0,0,1,1.06-7.99l15.57-12.4a5.34,5.34,0,0,1,3.39-1.2,5.525,5.525,0,0,1,4.45,2.3l5.75,7.94c4.57-2.14,9.8-5.75,15.48-11.7a55.245,55.245,0,0,0,11.19-16.31l-7.66-6.11a5.9,5.9,0,0,1-1.06-7.99l11.84-16.35a5.525,5.525,0,0,1,4.45-2.3,5.436,5.436,0,0,1,3.4,1.19l8.95,7.14c0.02,0.01.02,0.02,0.04,0.03a1.7,1.7,0,0,1,.19.19c0.05,0.06.11,0.11,0.16,0.17,0.03,0.04.06,0.09,0.09,0.14a1.665,1.665,0,0,1,.18.28c0.01,0.03.02,0.05,0.03,0.08a2.619,2.619,0,0,1,.15.39v0.01c0.23,0.86,5.23,21.42-21.9,49.88-19.5,20.44-35.16,23.5-42.77,23.5h0a19.012,19.012,0,0,1-4.86-.52,0.01,0.01,0,0,0-.01-0.01,3,3,0,0,1-.36-0.14,0.925,0.925,0,0,0-.1-0.05c-0.09-.05-0.17-0.11-0.26-0.17l-0.15-.12c-0.05-.05-0.11-0.1-0.16-0.16s-0.12-.13-0.18-0.2a0.138,0.138,0,0,1-.03-0.04l-1.45-2c-1.61,2.59-2.72,6.08-.47,9.46,4.55,6.86,18.77,8.7,30.97.89,5.35-3.42,9.07-8.63,12.67-13.67,4.79-6.71,9.31-13.05,17.12-14.57,4.56-.89,8.6.28,11.36,3.28C1350.79,4683.89,1351.93,4690.64,1350.22,4698.01Z" transform="translate(-1269 -4615)"/>
</svg>
