<svg xmlns="http://www.w3.org/2000/svg"  viewBox="0 0 30 30">
  <defs>
    <style>
      .cls-1 {
        fill: #65b936;
        fill-rule: evenodd;
      }
    </style>
  </defs>
  <path class="cls-1" d="M522,3167a15,15,0,1,1,15-15A15,15,0,0,1,522,3167Zm0-27.19A12.19,12.19,0,1,0,534.187,3152,12.191,12.191,0,0,0,522,3139.81Zm6.094,13.6h-4.688v4.68a1.406,1.406,0,1,1-2.812,0v-4.68h-4.688a1.41,1.41,0,0,1,0-2.82h4.688v-4.68a1.406,1.406,0,1,1,2.812,0v4.68h4.688A1.41,1.41,0,0,1,528.094,3153.41Z" transform="translate(-507 -3137)"/>
</svg>
