<svg xmlns="http://www.w3.org/2000/svg" width="46" height="46" viewBox="0 0 46 46">
  <defs>
    <style>
      .cls-1 {
        fill-rule: evenodd;
      }
    </style>
  </defs>
  <path class="cls-1" d="M835.264,1900.74A22.993,22.993,0,1,0,842,1917,22.832,22.832,0,0,0,835.264,1900.74ZM819,1938.17A21.17,21.17,0,1,1,840.167,1917,21.194,21.194,0,0,1,819,1938.17Zm0-40.56A19.39,19.39,0,1,0,838.388,1917,19.412,19.412,0,0,0,819,1897.61Zm15.639,27.36L832,1923.45a0.913,0.913,0,1,0-.917,1.58l2.639,1.53a17.646,17.646,0,0,1-5.163,5.16l-1.523-2.64a0.917,0.917,0,1,0-1.587.92l1.525,2.64a17.475,17.475,0,0,1-7.055,1.89v-3.05a0.916,0.916,0,1,0-1.832,0v3.05a17.475,17.475,0,0,1-7.055-1.89l1.526-2.64a0.928,0.928,0,0,0-.336-1.26,0.918,0.918,0,0,0-1.251.34l-1.524,2.64a17.646,17.646,0,0,1-5.163-5.16l2.639-1.53a0.913,0.913,0,1,0-.916-1.58l-2.643,1.52a17.415,17.415,0,0,1-1.893-7.05h3.054a0.92,0.92,0,0,0,0-1.84h-3.054a17.415,17.415,0,0,1,1.893-7.05l2.642,1.52a0.86,0.86,0,0,0,.458.13,0.927,0.927,0,0,0,.794-0.46,0.913,0.913,0,0,0-.335-1.25l-2.64-1.53a17.67,17.67,0,0,1,5.163-5.16l1.524,2.64a0.927,0.927,0,0,0,.795.46,0.943,0.943,0,0,0,.457-0.12,0.927,0.927,0,0,0,.335-1.26l-1.525-2.64a17.475,17.475,0,0,1,7.055-1.89v3.05a0.916,0.916,0,1,0,1.832,0v-3.05a17.475,17.475,0,0,1,7.055,1.89l-1.526,2.64a0.928,0.928,0,0,0,.336,1.26,0.943,0.943,0,0,0,.457.12,0.924,0.924,0,0,0,.794-0.46l1.524-2.64a17.646,17.646,0,0,1,5.163,5.16l-2.639,1.53a0.913,0.913,0,0,0-.335,1.25,0.924,0.924,0,0,0,.794.46,0.856,0.856,0,0,0,.457-0.13l2.643-1.52a17.414,17.414,0,0,1,1.892,7.05h-3.053a0.92,0.92,0,0,0,0,1.84h3.053A17.4,17.4,0,0,1,834.639,1924.97Zm-14.723-10.52v-5.88a0.916,0.916,0,1,0-1.832,0v5.88a2.72,2.72,0,0,0-1.795,2.55,2.684,2.684,0,0,0,.643,1.75l-1.455,2.52a0.913,0.913,0,0,0,.336,1.25,0.943,0.943,0,0,0,.457.12,0.914,0.914,0,0,0,.794-0.45l1.454-2.52a2.557,2.557,0,0,0,.482.04A2.709,2.709,0,0,0,819.916,1914.45ZM819,1917.88a0.88,0.88,0,1,1,.878-0.88A0.883,0.883,0,0,1,819,1917.88Zm0-13.25a0.917,0.917,0,0,0-.916.92v0.36a0.916,0.916,0,1,0,1.832,0v-0.36A0.917,0.917,0,0,0,819,1904.63Z" transform="translate(-796 -1894)"/>
</svg>
