<svg xmlns="http://www.w3.org/2000/svg" width="65" height="109.03" viewBox="0 0 65 109.03">
  <defs>
    <style>
      .cls-1 {
        fill-rule: evenodd;
      }
    </style>
  </defs>
  <path id="Shape_657_copy_2" data-name="Shape 657 copy 2" class="cls-1" d="M637.946,1216.74a9.809,9.809,0,0,0-1.775-1.42l-42.052-42.26a10.47,10.47,0,0,0-14.861,0,10.6,10.6,0,0,0,0,14.94l36.217,36.39-36.4,36.58a10.6,10.6,0,0,0,0,14.94,10.461,10.461,0,0,0,14.856-.01l42.24-42.44a10.337,10.337,0,0,0,1.775-1.42A11.085,11.085,0,0,0,637.946,1216.74Z" transform="translate(-576 -1169.97)"/>
</svg>
