<svg xmlns="http://www.w3.org/2000/svg" width="108.031" height="61" viewBox="0 0 108.031 61">
  <defs>
    <style>
      .cls-1 {
        fill: #fff;
        fill-rule: evenodd;
      }
    </style>
  </defs>
  <path class="cls-1" d="M257.684,454.134a10.157,10.157,0,0,0,1.409-1.665L300.963,413a9.468,9.468,0,0,0,0-13.947,10.921,10.921,0,0,0-14.8,0L250.1,433.045l-36.25-34.162a10.921,10.921,0,0,0-14.8,0,9.463,9.463,0,0,0,0,13.943l42.054,39.643a10.276,10.276,0,0,0,1.409,1.665A11.434,11.434,0,0,0,257.684,454.134Z" transform="translate(-196 -396)"/>
</svg>
