<svg xmlns="http://www.w3.org/2000/svg" width="138" height="115" viewBox="0 0 138 115">
  <defs>
    <style>
      .cls-1 {
        fill-rule: evenodd;
      }
    </style>
  </defs>
  <path class="cls-1" d="M421.788,322.563a5.193,5.193,0,0,1,.973-2.865h88.483a5.214,5.214,0,0,1,.971,2.865c0,4.511-6.626,8.328-14.461,8.328H436.248C428.413,330.9,421.788,327.078,421.788,322.563ZM536,325.437c0,3.93-2.82,7.117-6.288,7.117h-1.54c0,0.013.006,0.018,0.006,0.029a24.712,24.712,0,0,1,1.3,7.958v8.34c0,8.155-2,15.2-6.512,18.626v9.162c0,4.6-3.3,8.328-7.36,8.328H508.86c-4.06,0-7.358-3.734-7.358-8.328v-6.951h-69v6.951c0,4.6-3.3,8.328-7.358,8.328H418.4c-4.062,0-7.36-3.734-7.36-8.328v-9.162c-4.509-3.429-6.506-10.468-6.506-18.626v-8.34a24.861,24.861,0,0,1,1.29-7.947,0.4,0.4,0,0,0,.008-0.04h-1.543c-3.472,0-6.285-3.187-6.285-7.113s2.813-7.123,6.285-7.123h6.132a6.02,6.02,0,0,1,.64.072l7.984-20.283c2.524-6.408,8.606-11.24,14.149-11.24h20.069c0.89-7.911,6.668-16.872,13.719-16.872h0.041c7.054,0,12.824,8.958,13.721,16.872h20.069c5.449,0,11.675,4.936,14.151,11.233l7.987,20.29a5.175,5.175,0,0,1,.632-0.072h6.133C533.18,318.312,536,321.5,536,325.437Zm-117.889-2.874c0,6.722,7.965,11.986,18.137,11.986h61.506c10.179,0,18.141-5.273,18.141-11.989,0-.867-0.165-2.4-0.179-2.476-1.568-6.3-7.6-19.322-7.6-19.322-1.458-3.707-5.121-6.581-7.294-6.581H433.2c-2.174,0-5.836,2.874-7.3,6.586,0,0-5.3,12.1-7.607,19.322A23.792,23.792,0,0,0,418.111,322.563Zm20.37,28.4c0-4.742-5.224-8.6-11.67-8.6s-11.666,3.853-11.666,8.6,5.224,8.595,11.666,8.595S438.481,355.7,438.481,350.959Zm80.376,0c0-4.742-5.218-8.6-11.664-8.6s-11.67,3.853-11.67,8.6,5.223,8.595,11.67,8.595S518.857,355.7,518.857,350.959Z" transform="translate(-398 -270)"/>
</svg>
