<svg xmlns="http://www.w3.org/2000/svg" width="181.031" height="115" viewBox="0 0 181.031 115">
  <defs>
    <style>
      .cls-1 {
        fill-rule: evenodd;
      }
    </style>
  </defs>
  <path id="Forma_1" data-name="Forma 1" class="cls-1" d="M662.255,768.387h-71.49a2.9,2.9,0,0,0,0,5.809h71.491A2.9,2.9,0,0,0,662.255,768.387ZM560.9,781.554H550.31a2.905,2.905,0,0,0,0,5.81H560.9a11.332,11.332,0,0,1,10.915,8.537h-20.77a2.9,2.9,0,0,0,0,5.809h24a2.885,2.885,0,0,0,2.865-2.907A17.152,17.152,0,0,0,560.9,781.554Zm131.223,5.81h10.589a2.905,2.905,0,0,0,0-5.81H692.122A17.153,17.153,0,0,0,675.108,798.8a2.886,2.886,0,0,0,2.865,2.907h24a2.9,2.9,0,0,0,0-5.809h-20.77A11.334,11.334,0,0,1,692.122,787.364ZM711.2,768.789a20.9,20.9,0,0,0-15.356-6.6,2.77,2.77,0,0,0-.763.1l-9.208,2.579-13.563-26.419A16.706,16.706,0,0,0,658.6,730.02H594.425a16.7,16.7,0,0,0-13.709,8.435l-13.564,26.419-9.207-2.579a2.775,2.775,0,0,0-.763-0.1,20.907,20.907,0,0,0-15.357,6.6A21.513,21.513,0,0,0,536,784.65l2.079,42.029a2.884,2.884,0,0,0,2.862,2.759H541.9v12.684a2.884,2.884,0,0,0,2.865,2.905h30.144a2.885,2.885,0,0,0,2.865-2.905v-3.971a2.865,2.865,0,1,0-5.73,0v1.065H547.626v-9.778H705.394v9.778H680.98v-1.065a2.865,2.865,0,1,0-5.73,0v3.971a2.884,2.884,0,0,0,2.865,2.905h30.144a2.884,2.884,0,0,0,2.865-2.905V829.438h0.955a2.884,2.884,0,0,0,2.862-2.759l2.079-42.045A21.5,21.5,0,0,0,711.2,768.789Zm0.1,15.57-1.943,39.27H543.666l-1.941-39.251a15.7,15.7,0,0,1,4.241-11.573,15.239,15.239,0,0,1,10.843-4.8l11.022,3.087,0.021,0,10.69,3a2.862,2.862,0,0,0,3.525-2.027,2.911,2.911,0,0,0-2-3.574l-7.268-2.036,13-25.318a11,11,0,0,1,8.626-5.307H658.6a11,11,0,0,1,8.626,5.307l13,25.318-7.268,2.036a2.911,2.911,0,0,0-2,3.574,2.863,2.863,0,0,0,3.525,2.027l21.733-6.088a15.245,15.245,0,0,1,10.844,4.8A15.7,15.7,0,0,1,711.3,784.359Zm-15.458-27.978h9.981a2.905,2.905,0,0,0,0-5.81h-9.981A2.905,2.905,0,0,0,695.839,756.381Zm-148.638,0h9.981a2.905,2.905,0,0,0,0-5.81H547.2A2.905,2.905,0,0,0,547.2,756.381Zm111.087,47.866H594.733a2.885,2.885,0,0,0-2.865,2.905v7.763a2.865,2.865,0,1,0,5.73,0v-4.86h57.825v4.86a2.865,2.865,0,1,0,5.73,0v-7.763A2.885,2.885,0,0,0,658.288,804.247ZM642.4,789.688a2.905,2.905,0,0,0,0-5.81H610.622a2.905,2.905,0,0,0,0,5.81H642.4Z" transform="translate(-536 -730.031)"/>
</svg>
