<svg xmlns="http://www.w3.org/2000/svg" width="233" height="152" viewBox="0 0 233 152">
  <defs>
    <style>
      .cls-1 {
        fill-rule: evenodd;
      }
    </style>
  </defs>
  <path id="Forma_1" data-name="Forma 1" class="cls-1" d="M1493.56,87.525a6.829,6.829,0,0,0-.48-0.532l-8.16-7.853c6.77-1.531,14.06-7.187,14.06-12.989,0-6.756-9.41-9.156-17.44-9.156-8.4,0-9.37,5.736-9.47,9.789L1451,46.539c-4.28-4.224-12.4-7.547-18.46-7.547h-82.08c-6.07,0-14.18,3.323-18.46,7.547l-21.06,20.245c-0.11-4.052-1.09-9.789-9.48-9.789-8.04,0-17.44,2.4-17.44,9.156,0,5.8,7.29,11.458,14.06,12.989l-8.16,7.853a6.829,6.829,0,0,0-.48.532c-8.73,7.445-14.44,21.244-14.44,31.264v29.765a27.132,27.132,0,0,0,7.47,18.67V178.76a12.47,12.47,0,0,0,12.64,12.252h15.29a12.454,12.454,0,0,0,12.63-12.252v-2.954h136.93v2.954a12.457,12.457,0,0,0,12.64,12.252h15.28a12.463,12.463,0,0,0,12.64-12.252V167.224a27.1,27.1,0,0,0,7.48-18.67V118.789C1508,108.769,1502.29,94.971,1493.56,87.525ZM1339.73,55.537c2.97-2.462,8.15-4.329,10.73-4.329h82.08c2.58,0,7.76,1.867,10.73,4.329l27.62,26.683H1312.12Zm-55.25,58.746a13.069,13.069,0,0,1,12.85-13.276c7.1,0,30.31,13.573,30.31,20.9s-23.21,5.638-30.31,5.638A13.058,13.058,0,0,1,1284.48,114.282Zm38.56,48.472h-4.9l-14.53.022a27.636,27.636,0,0,1-8.89-4.281,12.9,12.9,0,0,1-2.4-2.435,9.579,9.579,0,0,1-1.35-2.452c-1.81-5.094,1.92-9.773,1.92-9.773h24.8l16.53,18.913h-11.18v0.006Zm104.11,0.008h-71.3a13.451,13.451,0,0,1-13.47-13.42h98.24A13.451,13.451,0,0,1,1427.15,162.762Zm3.13-22.569h-77.56c-8.08,0-14.65-9.938-14.65-22.193h106.86C1444.93,130.257,1438.36,140.193,1430.28,140.193Zm61.75,13.415a9.6,9.6,0,0,1-1.35,2.456,12.563,12.563,0,0,1-2.41,2.435,27.22,27.22,0,0,1-8.89,4.281l-14.52-.022h-16.08l16.53-18.913h24.79S1493.84,148.514,1492.03,153.608Zm-6.37-26.061c-7.09,0-30.29,1.684-30.29-5.638s23.2-20.9,30.29-20.9A13.277,13.277,0,0,1,1485.66,127.547Z" transform="translate(-1275 -39)"/>
</svg>
