<svg xmlns="http://www.w3.org/2000/svg" width="162" height="162" viewBox="0 0 162 162">
  <defs>
    <style>
      .cls-1 {
        fill-rule: evenodd;
      }
    </style>
  </defs>
  <path class="cls-1" d="M1011,361a81,81,0,1,1,81-81A81,81,0,0,1,1011,361Zm0-146.812A65.813,65.813,0,1,0,1076.81,280,65.812,65.812,0,0,0,1011,214.188Zm27.84,101.25a7.591,7.591,0,0,1-5.37-2.225h0L1011,290.739l-22.474,22.474h0a7.594,7.594,0,1,1-10.739-10.739h0L1000.26,280l-22.473-22.473h0a7.594,7.594,0,1,1,10.739-10.74h0L1011,269.261l22.47-22.474h0a7.594,7.594,0,1,1,10.74,10.74h0L1021.74,280l22.47,22.474h0A7.59,7.59,0,0,1,1038.84,315.438Z" transform="translate(-930 -199)"/>
</svg>
