<svg xmlns="http://www.w3.org/2000/svg" width="171" height="219" viewBox="0 0 171 219">
  <defs>
    <style>
      .cls-1 {
        fill-rule: evenodd;
      }
    </style>
  </defs>
  <path id="Forma_1" data-name="Forma 1" class="cls-1" d="M1299.93,3498H1182v219h171V3551.24Zm-53.81,152.5-18.19,14.6a3.634,3.634,0,0,1-4.85-.27l-7.27-7.3a3.642,3.642,0,1,1,5.14-5.16l4.97,4.99,15.65-12.56A3.647,3.647,0,0,1,1246.12,3650.5Zm0-40.15-18.19,14.6a3.6,3.6,0,0,1-2.27.8,3.634,3.634,0,0,1-2.58-1.07l-7.27-7.3a3.642,3.642,0,0,1,5.14-5.16l4.97,4.99,15.65-12.56A3.647,3.647,0,0,1,1246.12,3610.35Zm0-40.15-18.19,14.6a3.6,3.6,0,0,1-2.27.8,3.634,3.634,0,0,1-2.58-1.07l-7.27-7.3a3.642,3.642,0,0,1,5.14-5.16l4.97,4.99,15.65-12.56A3.647,3.647,0,0,1,1246.12,3570.2Zm66.86,92.05h-58.21a3.65,3.65,0,0,1,0-7.3h58.21A3.65,3.65,0,0,1,1312.98,3662.25Zm0-40.15h-58.21a3.65,3.65,0,0,1,0-7.3h58.21A3.65,3.65,0,0,1,1312.98,3622.1Zm0-40.15h-58.21a3.65,3.65,0,0,1,0-7.3h58.21A3.65,3.65,0,0,1,1312.98,3581.95Zm-18.19-25.55v-51.1l50.93,51.1h-50.93Z" transform="translate(-1182 -3498)"/>
</svg>
