<svg xmlns="http://www.w3.org/2000/svg" width="236" height="242.88" viewBox="0 0 236 242.88">
  <defs>
    <style>
      .cls-1 {
 
        fill-rule: evenodd;
      }
    </style>
  </defs>
  <path class="cls-1" d="M539.466,3617.98a12.118,12.118,0,1,1-12.117-12.17A12.136,12.136,0,0,1,539.466,3617.98Zm49.185-12.17a12.165,12.165,0,1,0,12.118,12.17A12.138,12.138,0,0,0,588.651,3605.81Zm51.76,49.53v-1.39a106.388,106.388,0,0,1-4.85,11.63,72.457,72.457,0,0,0,1.983,9.15c4.981,7.73,19.034,17.59,28.669,20.13a32.872,32.872,0,0,1-17.54,2.19,52.42,52.42,0,0,0,24.52,17.25c-25.914,23.45-68.613,23.97-98.459,5.76a55.155,55.155,0,0,1-33.469,0c-29.846,18.21-72.544,17.69-98.459-5.76a52.379,52.379,0,0,0,24.835-17.68,32.951,32.951,0,0,1-14.066-2.51c7.059-1.86,16.487-7.65,22.992-13.66a72.625,72.625,0,0,0,3.872-14.87,106.589,106.589,0,0,1-4.851-11.63v1.39H460.934A20.976,20.976,0,0,1,440,3634.32v-23.13a21.014,21.014,0,0,1,10.975-18.49c0.219-32.83,9.748-58.48,28.363-76.2C497.8,3498.92,524.268,3490,558,3490s60.2,8.92,78.662,26.5c18.615,17.72,28.143,43.37,28.363,76.2A21.014,21.014,0,0,1,676,3611.19v23.13a20.977,20.977,0,0,1-20.935,21.02H640.411Zm-8.719-37.29c0-5.41-.276-10.49-0.683-15.41-9.445-8.68-26.725-15.23-48.513-17.53a26.4,26.4,0,0,1,8.013,13.18c-12.669-9.3-39.222-12.18-48.041-22.14h0.009c-14.039-9.33-17.723-22.7-17.841-17.17-0.568,26.53-19.294,47.22-40.089,50.13-0.131,2.92-.239,5.87-0.239,8.94a95.532,95.532,0,0,0,4.924,30.65c11.68,14.14,30.97,18.14,48.043,19.2,3.169-5.06,10.281-8.6,18.563-8.6,11.228,0,20.33,6.49,20.33,14.49s-9.1,14.5-20.33,14.5c-8.637,0-16-3.85-18.943-9.27-11.933-.69-25.05-2.73-36.741-8.28,16.442,24.34,41.929,37.2,57.846,37.2C583.011,3707.94,631.692,3676.22,631.692,3618.05Zm12.675-27.88h8.055c-1.333-57.29-33.9-87.56-94.422-87.56s-93.089,30.27-94.421,87.56h8.054c2.945-19.31,9.17-35.19,18.62-47.4,15.06-19.46,37.853-29.33,67.747-29.33s52.688,9.87,67.748,29.33C635.2,3554.98,641.422,3570.86,644.367,3590.17Z" transform="translate(-440 -3490)"/>
</svg>
