<svg xmlns="http://www.w3.org/2000/svg" width="123.031" height="133.031" viewBox="0 0 123.031 133.031">
  <defs>
    <style>
      .cls-1 {
        fill-rule: evenodd;
      }
    </style>
  </defs>
  <path id="Forma_1" data-name="Forma 1" class="cls-1" d="M930.978,817.3a182.391,182.391,0,0,1-47.6,28.7,3.2,3.2,0,0,1-2.446-5.9c0.44-.186.88-0.369,1.319-0.557a3.137,3.137,0,0,1,.129-0.391l11.9-29.45c3.664-9.063,7.528-15.475,12.16-20.184a30.474,30.474,0,0,1,22.476-9.365h10.71a3.2,3.2,0,0,1,0,6.4H928.922c-12.9,0-21.492,7.644-28.735,25.557l-9.546,23.617c30.161-14.634,54.294-36.371,67.086-60.706A3.188,3.188,0,1,1,963.362,778q-1.584,3.014-3.37,5.964c5.033,2.811,9.349,7.149,13.135,13.189a3.189,3.189,0,1,1-5.393,3.4c-3.291-5.251-6.97-8.931-11.207-11.205A139.825,139.825,0,0,1,930.978,817.3Zm-13.692-67.689a19.53,19.53,0,1,1,19.531,19.6A19.589,19.589,0,0,1,917.286,749.611Zm6.371,0a13.16,13.16,0,1,0,13.16-13.209A13.2,13.2,0,0,0,923.657,749.611Zm6.952,91.09a3.186,3.186,0,1,0-6.292,1,39.276,39.276,0,0,0,9.742,20.272,3.191,3.191,0,1,0,4.711-4.306A32.887,32.887,0,0,1,930.609,840.7Zm71.371-11.33a39.985,39.985,0,0,0-9.706-20.251,3.191,3.191,0,1,0-4.739,4.274,33.573,33.573,0,0,1,8.154,17.012,3.19,3.19,0,0,0,3.14,2.68,3.393,3.393,0,0,0,.519-0.042A3.207,3.207,0,0,0,1001.98,829.371Zm-15.242-6.265a26.73,26.73,0,0,1-11.184,35.979,26.507,26.507,0,0,1-35.846-11.225,26.734,26.734,0,0,1,11.183-35.98h0A26.535,26.535,0,0,1,986.738,823.106Zm-33.6,14.074a10.289,10.289,0,0,1,5.336-10.78h0a10.208,10.208,0,0,1,11.864,1.725l9.052-4.766a20.193,20.193,0,0,0-35.3,18.581Zm13.489-3.49a3.85,3.85,0,1,0-1.619,5.212A3.845,3.845,0,0,0,966.63,833.69Zm15.723-4.667-9.052,4.764a10.219,10.219,0,0,1-17.2,9.053l-9.052,4.764A20.192,20.192,0,0,0,982.353,829.023Z" transform="translate(-878.969 -730)"/>
</svg>
