<svg xmlns="http://www.w3.org/2000/svg" width="307.25" height="287" viewBox="0 0 307.25 287">
  <defs>
    <style>
      .cls-1 {
        fill-rule: evenodd;
      }
    </style>
  </defs>
  <path class="cls-1" d="M631.57,291.767h30.267v65.677L631.7,330.479ZM664.693,403.3L547.024,292.039,421.518,404c-21,18.722-30.635,0-30.635,0L547.024,258.986,698.116,403.3S689,421.794,664.693,403.3Zm-11.782,10.022V536.69s0.389,9.014-8.129,9.014H568.977L569.11,479s0.744-11.03-11.259-11.03H525.718c-10.162,0-9.062,11.03-9.062,11.03l-0.122,66.918s-69.088.09-77.44,0.09c-6.706,0-6.438-7.234-6.438-7.234V413.326l113.425-100.21Z" transform="translate(-390.875 -259)"/>
</svg>
