<svg xmlns="http://www.w3.org/2000/svg" width="196" height="206" viewBox="0 0 196 206">
  <defs>
    <style>
      .cls-1 {
   
        fill-rule: evenodd;
      }
    </style>
  </defs>
  <path class="cls-1" d="M844.566,3638.15a18.029,18.029,0,0,1-14.11,6.74H811.663l-4.245,5.43a18.13,18.13,0,0,1-25.345,3.16,17.87,17.87,0,0,1-3.178-25.18L859.5,3525.19v-19.2a7.014,7.014,0,0,0-7.037-6.99H698.041a7.014,7.014,0,0,0-7.038,6.99V3698a7.016,7.016,0,0,0,7.038,7H852.463a7.016,7.016,0,0,0,7.037-7v-78.43ZM723.778,3538.8h38.6a5.6,5.6,0,1,1,0,11.19h-38.6A5.6,5.6,0,1,1,723.778,3538.8Zm0,25.6h81.634a5.6,5.6,0,1,1,0,11.19H723.778A5.6,5.6,0,1,1,723.778,3564.4Zm38.6,49.6h-38.6a5.6,5.6,0,1,1,0-11.2h38.6A5.6,5.6,0,1,1,762.382,3614Zm26.6,30.65a6.833,6.833,0,0,0,9.542-1.19l7.629-9.76h24.3a6.8,6.8,0,0,0,5.31-2.54l49.741-61.85a6.748,6.748,0,0,0,1.488-4.23v-37.11a6.77,6.77,0,0,0-4.6-6.4,6.981,6.981,0,0,0-2.2-.36,6.815,6.815,0,0,0-5.373,2.61l-87.041,111.34A6.737,6.737,0,0,0,788.983,3644.65Z" transform="translate(-691 -3499)"/>
</svg>
