<svg xmlns="http://www.w3.org/2000/svg" width="106.938" height="136" viewBox="0 0 106.938 136">
  <defs>
    <style>
      .cls-1 {
        fill-rule: evenodd;
      }
    </style>
  </defs>
  <path id="Forma_1_copy" data-name="Forma 1 copy" class="cls-1" d="M488.708,827.469l-10.519-2.65c1.268-.511,2.625-1.082,3.988-1.693,8.262-3.7,11.787-6.588,11.787-9.65,0-31.167-4.068-52.9-12.437-66.454-7.483-12.113-18.616-18-34.037-18s-26.554,5.889-34.036,18c-8.369,13.55-12.438,35.287-12.438,66.454,0,3.062,3.525,5.949,11.788,9.65,1.363,0.611,2.72,1.182,3.987,1.693l-10.518,2.65a16.254,16.254,0,0,0-12.25,15.816v14.842a6.884,6.884,0,0,0,6.848,6.9H494.11a6.884,6.884,0,0,0,6.847-6.9V843.285A16.254,16.254,0,0,0,488.708,827.469Zm-59.97-1.121a9.226,9.226,0,0,0,6.952-8.977V815.31a26.976,26.976,0,0,0,23.6,0v2.06a9.226,9.226,0,0,0,6.952,8.976l2.747,0.694c-5.372,6.637-13.388,14.093-21.5,17.006-8.111-2.913-16.127-10.369-21.5-17.006Zm18.752-12.726c-15.5,0-28.117-15.88-28.117-35.4v-1.4c12.148-11.175,35.826-12.688,45.126-12.835a59.639,59.639,0,0,0,10.608,20.648,38.339,38.339,0,0,1-9.406,20.514C460.627,810.613,454.16,813.622,447.49,813.622Zm-42.1-.233c0.008-30.272,3.86-51.218,11.777-64.038,6.711-10.866,16.347-15.925,30.326-15.925s23.616,5.059,30.327,15.925c7.916,12.82,11.769,33.766,11.777,64.038-0.131.287-1.283,2.233-9.771,5.967-3.879,1.708-7.689,3.075-9.119,3.576l-3.4-.859a4.833,4.833,0,0,1-3.642-4.7v-4.626a33.266,33.266,0,0,0,5.23-4.583,43.026,43.026,0,0,0,10.682-23.931,2.217,2.217,0,0,0-.521-1.72c-6.007-6.951-9.193-15.433-10.808-21.325a2.186,2.186,0,0,0-2.106-1.615A121.47,121.47,0,0,0,441.4,762.1c-11.368,2.472-20.029,6.576-25.742,12.2a2.21,2.21,0,0,0-.659,1.575v2.35c0,14.74,6.574,27.635,16.317,34.514v4.634a4.834,4.834,0,0,1-3.642,4.7l-3.4.859c-1.427-.5-5.218-1.86-9.093-3.564C406.672,815.626,405.517,813.676,405.387,813.389Zm91.2,44.738a2.492,2.492,0,0,1-2.477,2.5h-11.8V849.779a2.185,2.185,0,1,0-4.37,0v10.846h-60.9V849.779a2.186,2.186,0,1,0-4.371,0v10.846h-11.8a2.491,2.491,0,0,1-2.477-2.5V843.285a11.865,11.865,0,0,1,8.938-11.543l14-3.528c8.8,11.629,18.832,18.078,25.483,20.259a2.167,2.167,0,0,0,1.351,0c6.652-2.181,16.686-8.63,25.484-20.259l14,3.528a11.864,11.864,0,0,1,8.939,11.543v14.842Z" transform="translate(-394.031 -729.031)"/>
</svg>
