<svg xmlns="http://www.w3.org/2000/svg" width="87" height="118" viewBox="0 0 87 118">
  <defs>
    <style>
      .cls-1 {
        fill-rule: evenodd;
      }
    </style>
  </defs>
  <path class="cls-1" d="M770.5,4038.99a43.522,43.522,0,0,0-43.5,43.45,42.343,42.343,0,0,0,3.8,17.73c10.875,23.76,31.727,48.85,37.86,55.98a2.423,2.423,0,0,0,3.669,0c6.131-7.12,26.982-32.21,37.862-55.98a42.356,42.356,0,0,0,3.8-17.73A43.525,43.525,0,0,0,770.5,4038.99Zm0,66.01a22.565,22.565,0,1,1,22.6-22.56A22.6,22.6,0,0,1,770.5,4105Z" transform="translate(-727 -4039)"/>
</svg>
