<svg xmlns="http://www.w3.org/2000/svg" width="62" height="62" viewBox="0 0 62 62">
  <defs>
    <style>
      .cls-1 {
  
        fill-rule: evenodd;
      }
    </style>
  </defs>
  <path class="cls-1" d="M647,1653h-1.356a8.975,8.975,0,0,0,3.356-7v-3.56a3.985,3.985,0,0,0-2-7.44H633a3.985,3.985,0,0,0-2,7.44V1646a8.975,8.975,0,0,0,3.356,7H633a9.012,9.012,0,0,0-9,9v10a6.005,6.005,0,0,0,6,6v19h20v-19a6.005,6.005,0,0,0,6-6v-10A9.012,9.012,0,0,0,647,1653Zm-16-14a2,2,0,0,1,2-2h14a2,2,0,0,1,0,4H633A2,2,0,0,1,631,1639Zm15.494,4a4.266,4.266,0,0,1-3.617,2h-5.754a4.266,4.266,0,0,1-3.617-2h12.988ZM633,1646v-0.57a6.225,6.225,0,0,0,4.123,1.57h5.754a6.225,6.225,0,0,0,4.123-1.57V1646A7,7,0,0,1,633,1646Zm11.523,9-0.993,2.48-0.96-.64,1.844-1.84h0.109Zm-3.937,1h-1.172l-1-1h3.172Zm0.379,12.62-0.965.97-0.965-.97L639.92,1658h0.16Zm-3.534-11.78-0.96.64-0.994-2.48h0.109ZM630,1676a3.987,3.987,0,0,1-3.444-2H630v2Zm9,19h-7v-2h7v2h0Zm9,0h-7v-2h7v2h0Zm0-4h-7v-11h-2v11h-7v-15h16v15Zm2-15v-2h3.444A3.987,3.987,0,0,1,650,1676Zm4-4h-4v-12h-2v14H632v-14h-2v12h-4v-10a7.008,7.008,0,0,1,7-7h0.323l2.207,5.52,2.3-1.54-0.867,10.4,3.035,3.03,3.035-3.03-0.867-10.4,2.3,1.54,2.207-5.52H647a7.008,7.008,0,0,1,7,7v10Zm21.123-37a5,5,0,0,0-4.851,3.79L667.719,1649H666v-3h-6a4,4,0,0,0,0,8h4.764l1.516,0.76-0.126.5A13.065,13.065,0,0,0,658,1667.32v16.15a5.006,5.006,0,0,0,4,4.88V1694a3.006,3.006,0,0,0,3,3h8a3.006,3.006,0,0,0,3-3v-5h10v-54H675.123ZM664,1652h-4a2,2,0,0,1,0-4h4v4Zm2,0.38V1651h1.219l-0.443,1.77Zm0,42.62h-1a1,1,0,0,1-1-1v-5.39c0.665,0.06,1.332.12,2,.17V1695Zm7,0h-1v-1h-2v1h-2v-6.09c0.667,0.03,1.333.05,2,.07V1692h2v-3h2v5h0A1,1,0,0,1,673,1695Zm11-12H668a2,2,0,0,1,0-4h16v4Zm0-6H668a4,4,0,0,0,0,8h16v2H671.53a73.523,73.523,0,0,1-8.9-.55,3.01,3.01,0,0,1-2.628-2.98v-16.15a11.051,11.051,0,0,1,7.138-10.3l0.044-.02H684v20Zm0-22H668.281l3.932-15.73a3,3,0,0,1,2.91-2.27H684v18Zm-21,11a6,6,0,1,0,6-6A6.005,6.005,0,0,0,663,1666Zm6-4a4,4,0,1,1-4,4A4,4,0,0,1,669,1662Z" transform="translate(-624 -1635)"/>
</svg>
