<svg xmlns="http://www.w3.org/2000/svg" width="243" height="167" viewBox="0 0 243 167">
  <defs>
    <style>
      .cls-1 {
        fill-rule: evenodd;
      }
    </style>
  </defs>
  <path class="cls-1" d="M1635.7,3506H1441.29a24.077,24.077,0,0,0-24.29,23.85v119.29a24.079,24.079,0,0,0,24.29,23.86H1635.7a24.082,24.082,0,0,0,24.3-23.86V3529.85A24.08,24.08,0,0,0,1635.7,3506Zm-173.14,47.06c0-16.39,12.39-24.29,22.76-24.29,10.73,0,22.76,7.9,22.76,24.29v12.15c0,16.39-16.67,24.29-22.76,24.29-5.77,0-22.76-7.9-22.76-24.29v-12.15Zm68.35,81.98c0,11.02-3.71,15.19-15.19,15.19h-60.74c-11.48,0-15.19-4.17-15.19-15.19-0.02-.12,0-7.45,0-7.59,0-8.34,3.8-20.09,17.28-29.2,5.58-3.77,12.65,2.31,20.69,9.39l2.21,2.22a8.953,8.953,0,0,0,5.44,2.41,8.486,8.486,0,0,0,5.33-2.44v0.01l2.2-2.2c8.04-7.07,14.12-13.04,20.69-9.39a32.553,32.553,0,0,1,17.28,29.2C1530.91,3627.59,1530.92,3634.92,1530.91,3635.04Zm98.71,0h-68.34a7.59,7.59,0,0,1,0-15.18h68.34A7.59,7.59,0,1,1,1629.62,3635.04Zm0-37.95h-68.34a7.59,7.59,0,1,1,0-15.18h68.34A7.59,7.59,0,1,1,1629.62,3597.09Zm0-37.96h-68.34a7.59,7.59,0,1,1,0-15.18h68.34A7.59,7.59,0,1,1,1629.62,3559.13Z" transform="translate(-1417 -3506)"/>
</svg>
