<svg xmlns="http://www.w3.org/2000/svg" width="150.063" height="149.94" viewBox="0 0 150.063 149.94">
  <defs>
    <style>
      .cls-1 {
        fill-rule: evenodd;
      }
    </style>
  </defs>
  <path id="Shape_10_copy_4" data-name="Shape 10 copy 4" class="cls-1" d="M540.623,2515.31l-30.457,31.02,7.189,43.8a8.631,8.631,0,0,1-3.208,8.24,7.842,7.842,0,0,1-4.732,1.6,7.737,7.737,0,0,1-3.745-.97l-37.654-20.68L430.364,2599a7.75,7.75,0,0,1-8.48-.63,8.6,8.6,0,0,1-3.2-8.23l7.191-43.81-30.46-31.02a8.681,8.681,0,0,1-2.044-8.62,8.159,8.159,0,0,1,6.5-5.72l42.1-6.4,18.837-39.86a7.894,7.894,0,0,1,14.429,0l18.835,39.85,42.1,6.4a8.129,8.129,0,0,1,6.485,5.73A8.677,8.677,0,0,1,540.623,2515.31Z" transform="translate(-393 -2450.03)"/>
</svg>
