<svg xmlns="http://www.w3.org/2000/svg" width="174" height="174" viewBox="0 0 174 174">
  <defs>
    <style>
      .cls-1 {
        fill-rule: evenodd;
      }
    </style>
  </defs>
  <path class="cls-1" d="M1363.38,4614.89c-2.79-1.62-6.67-1.62-9.82-1.62h-10.34v21.31h9.49c3.52,0,8,.25,11.03-1.88,2.78-1.87,4.36-5.55,4.36-9.05C1368.1,4620.41,1366.16,4616.51,1363.38,4614.89Zm-3.9-18.2a9.926,9.926,0,0,0,3.5-7.76,8.963,8.963,0,0,0-4.11-7.75c-2.79-1.62-7.88-1.25-11.15-1.25h-4.5v18.76h5.96C1352.57,4598.69,1356.57,4598.94,1359.48,4596.69Zm50.93-77.7H1297.58a30.587,30.587,0,0,0-30.58,30.59v112.83a30.579,30.579,0,0,0,30.58,30.58h112.83a30.587,30.587,0,0,0,30.59-30.58V4549.58A30.6,30.6,0,0,0,1410.41,4518.99Zm-51.69,131.47h-35.55v-85.79h38.84c11.25,0,21.63,7.16,21.63,19.79,0,9.75-5.44,16.43-12.39,18.51v0.25c10.3,2.13,17.65,7.72,17.65,21.22C1388.9,4636.92,1380.4,4650.46,1358.72,4650.46Z" transform="translate(-1267 -4519)"/>
</svg>
